FILE "MDK (1997)(Shiny)(M5)[SLES-00599] (Track 01 of 30).bin" BINARY
  TRACK 01 MODE2/2352
    INDEX 01 00:00:00
FILE "MDK (1997)(Shiny)(M5)[SLES-00599] (Track 02 of 30).bin" BINARY
  TRACK 02 AUDIO
    INDEX 00 00:00:00
    INDEX 01 00:02:00
FILE "MDK (1997)(Shiny)(M5)[SLES-00599] (Track 03 of 30).bin" BINARY
  TRACK 03 AUDIO
    INDEX 00 00:00:00
    INDEX 01 00:02:00
FILE "MDK (1997)(Shiny)(M5)[SLES-00599] (Track 04 of 30).bin" BINARY
  TRACK 04 AUDIO
    INDEX 00 00:00:00
    INDEX 01 00:02:00
FILE "MDK (1997)(Shiny)(M5)[SLES-00599] (Track 05 of 30).bin" BINARY
  TRACK 05 AUDIO
    INDEX 00 00:00:00
    INDEX 01 00:02:00
FILE "MDK (1997)(Shiny)(M5)[SLES-00599] (Track 06 of 30).bin" BINARY
  TRACK 06 AUDIO
    INDEX 00 00:00:00
    INDEX 01 00:02:00
FILE "MDK (1997)(Shiny)(M5)[SLES-00599] (Track 07 of 30).bin" BINARY
  TRACK 07 AUDIO
    INDEX 00 00:00:00
    INDEX 01 00:02:00
FILE "MDK (1997)(Shiny)(M5)[SLES-00599] (Track 08 of 30).bin" BINARY
  TRACK 08 AUDIO
    INDEX 00 00:00:00
    INDEX 01 00:02:00
FILE "MDK (1997)(Shiny)(M5)[SLES-00599] (Track 09 of 30).bin" BINARY
  TRACK 09 AUDIO
    INDEX 00 00:00:00
    INDEX 01 00:02:00
FILE "MDK (1997)(Shiny)(M5)[SLES-00599] (Track 10 of 30).bin" BINARY
  TRACK 10 AUDIO
    INDEX 00 00:00:00
    INDEX 01 00:02:00
FILE "MDK (1997)(Shiny)(M5)[SLES-00599] (Track 11 of 30).bin" BINARY
  TRACK 11 AUDIO
    INDEX 00 00:00:00
    INDEX 01 00:02:00
FILE "MDK (1997)(Shiny)(M5)[SLES-00599] (Track 12 of 30).bin" BINARY
  TRACK 12 AUDIO
    INDEX 00 00:00:00
    INDEX 01 00:02:00
FILE "MDK (1997)(Shiny)(M5)[SLES-00599] (Track 13 of 30).bin" BINARY
  TRACK 13 AUDIO
    INDEX 00 00:00:00
    INDEX 01 00:02:00
FILE "MDK (1997)(Shiny)(M5)[SLES-00599] (Track 14 of 30).bin" BINARY
  TRACK 14 AUDIO
    INDEX 00 00:00:00
    INDEX 01 00:02:00
FILE "MDK (1997)(Shiny)(M5)[SLES-00599] (Track 15 of 30).bin" BINARY
  TRACK 15 AUDIO
    INDEX 00 00:00:00
    INDEX 01 00:02:00
FILE "MDK (1997)(Shiny)(M5)[SLES-00599] (Track 16 of 30).bin" BINARY
  TRACK 16 AUDIO
    INDEX 00 00:00:00
    INDEX 01 00:02:00
FILE "MDK (1997)(Shiny)(M5)[SLES-00599] (Track 17 of 30).bin" BINARY
  TRACK 17 AUDIO
    INDEX 00 00:00:00
    INDEX 01 00:02:00
FILE "MDK (1997)(Shiny)(M5)[SLES-00599] (Track 18 of 30).bin" BINARY
  TRACK 18 AUDIO
    INDEX 00 00:00:00
    INDEX 01 00:02:00
FILE "MDK (1997)(Shiny)(M5)[SLES-00599] (Track 19 of 30).bin" BINARY
  TRACK 19 AUDIO
    INDEX 00 00:00:00
    INDEX 01 00:02:00
FILE "MDK (1997)(Shiny)(M5)[SLES-00599] (Track 20 of 30).bin" BINARY
  TRACK 20 AUDIO
    INDEX 00 00:00:00
    INDEX 01 00:02:00
FILE "MDK (1997)(Shiny)(M5)[SLES-00599] (Track 21 of 30).bin" BINARY
  TRACK 21 AUDIO
    INDEX 00 00:00:00
    INDEX 01 00:02:00
FILE "MDK (1997)(Shiny)(M5)[SLES-00599] (Track 22 of 30).bin" BINARY
  TRACK 22 AUDIO
    INDEX 00 00:00:00
    INDEX 01 00:02:00
FILE "MDK (1997)(Shiny)(M5)[SLES-00599] (Track 23 of 30).bin" BINARY
  TRACK 23 AUDIO
    INDEX 00 00:00:00
    INDEX 01 00:02:00
FILE "MDK (1997)(Shiny)(M5)[SLES-00599] (Track 24 of 30).bin" BINARY
  TRACK 24 AUDIO
    INDEX 00 00:00:00
    INDEX 01 00:02:00
FILE "MDK (1997)(Shiny)(M5)[SLES-00599] (Track 25 of 30).bin" BINARY
  TRACK 25 AUDIO
    INDEX 00 00:00:00
    INDEX 01 00:02:00
FILE "MDK (1997)(Shiny)(M5)[SLES-00599] (Track 26 of 30).bin" BINARY
  TRACK 26 AUDIO
    INDEX 00 00:00:00
    INDEX 01 00:02:00
FILE "MDK (1997)(Shiny)(M5)[SLES-00599] (Track 27 of 30).bin" BINARY
  TRACK 27 AUDIO
    INDEX 00 00:00:00
    INDEX 01 00:02:00
FILE "MDK (1997)(Shiny)(M5)[SLES-00599] (Track 28 of 30).bin" BINARY
  TRACK 28 AUDIO
    INDEX 00 00:00:00
    INDEX 01 00:02:00
FILE "MDK (1997)(Shiny)(M5)[SLES-00599] (Track 29 of 30).bin" BINARY
  TRACK 29 AUDIO
    INDEX 00 00:00:00
    INDEX 01 00:02:00
FILE "MDK (1997)(Shiny)(M5)[SLES-00599] (Track 30 of 30).bin" BINARY
  TRACK 30 AUDIO
    INDEX 00 00:00:00
    INDEX 01 00:02:00
